<?xml version="1.0" encoding="UTF-8" standalone="no"?>
<svg width="500px" height="500px" viewBox="0 0 500 500" version="1.1" xmlns="http://www.w3.org/2000/svg" xmlns:xlink="http://www.w3.org/1999/xlink">
    <!-- Generator: Sketch 39.1 (31720) - http://www.bohemiancoding.com/sketch -->
    <title>Icon-Original</title>
    <desc>Created with Sketch.</desc>
    <defs>
        <path d="M4.1792515,135.440426 L209.044521,4.83297872 C211.959461,2.97234043 214.956347,1.07659574 218.339551,0.362765957 C222.214431,-0.468085106 226.241497,0.362765957 230.128084,1.11170213 C280.68493,11.4095745 330.995938,22.8347518 381.061108,35.387234 C384.900868,36.3468085 389.255719,37.8212766 390.590269,41.5542553 L169.511377,241.239362 C168.547691,242.265499 167.339345,243.030493 165.999401,243.462766 C163.880509,243.954255 161.773323,242.748936 159.935389,241.590426 L12.1631437,148.804255 C12.8889521,161.419149 24.4667665,170.254255 34.9675749,177.287234 L155.697605,258.160638 C157.219461,259.178723 158.90521,260.243617 160.731437,260.056383 C162.335533,259.724491 163.798679,258.907403 164.922395,257.715957 L372.269461,73.9691489 C377.080868,69.7095745 371.239281,58.1244681 377.549132,56.9308511 L376.31994,66.5265957 L382.173234,69.7797872 C382.66491,75.9351064 377.79497,81.0606383 373.287934,85.2968085 L172.086826,274.309574 L174.755928,267.62766 C173.678922,271.465957 169.113353,273.478723 165.14482,272.998936 C161.176287,272.519149 157.687725,270.27234 154.351347,268.07234 L28.7630838,184.893617 C23.0502695,181.11383 17.2438024,177.252128 12.8304192,172.021277 C6.49715569,164.520213 3.51197605,154.77234 0.772634731,145.328723 C0.152185629,143.234043 -0.398023952,140.917021 0.468263473,138.939362 C1.3442349,137.442845 2.6270026,136.225492 4.16754491,135.428723 L4.1792515,135.440426 Z M128.128593,214.148936 C125.625313,213.169801 123.218928,211.959231 120.940749,210.532979 C100.134242,198.354965 79.6399102,185.662057 59.4577545,172.454255 C50.4124651,167.773404 41.593503,162.663475 33.0008683,157.124468 C25.3311276,151.650181 17.2040506,146.846265 8.7097006,142.765957 C59.5631138,176.55 113.35488,205.746809 163.974162,239.893617 C160.472398,237.109097 157.886944,233.338381 156.552186,229.069149 C155.077156,230.379787 152.770958,229.560638 151.01497,228.647872 C142.978884,224.489406 135.321058,219.638034 128.128593,214.148936 L128.128593,214.148936 Z M123.598144,196.104255 C122.591377,196.630851 121.420719,195.647872 120.952455,194.606383 C120.484192,193.564894 120.25006,192.33617 119.348653,191.645745 C118.880389,191.282979 117.908743,191.435106 118.049222,192.008511 C119.564275,194.997148 121.57506,197.707509 123.996168,200.024468 C123.586772,198.760756 123.451092,197.424422 123.598144,196.104255 L123.598144,196.104255 Z M74.7816766,171.225532 C73.1427545,168.510638 69.4902994,167.984043 66.329521,167.714894 C67.1571608,168.320207 67.8177113,169.12545 68.2494012,170.055319 C68.8581437,169.01383 70.4502395,169.224468 71.4921257,169.832979 C72.534012,170.441489 73.5876048,171.307447 74.7933832,171.155319 L74.7816766,171.225532 Z M102.889192,184.96383 C102.561407,184.612766 101.917545,185.080851 101.964371,185.548936 C102.082398,186.021241 102.410183,186.41357 102.854072,186.61383 C103.692541,187.127606 104.598844,187.5215 105.546587,187.784043 C105.073654,186.526401 104.044868,185.5585 102.760419,185.162766 L102.889192,184.96383 Z M86.5467964,146.358511 L87.4833234,145.656383 C86.994619,144.662407 86.2092467,143.844622 85.2356587,143.315957 C85.1251394,144.451132 85.5964703,145.565163 86.4882635,146.276596 L86.5467964,146.358511 Z M79.7335629,171.248936 C80.2771249,172.360697 81.4507162,173.021755 82.6836228,172.910638 L81.232006,170.675532 L79.8038024,171.307447 L79.7335629,171.248936 Z M180.187784,223.709574 L182.529102,221.053191 C181.36388,221.152095 180.343063,221.87266 179.86,222.937234 L180.187784,223.709574 Z M76.9005689,171.21383 C77.4230656,171.360816 77.9837784,171.270965 78.4341317,170.968085 L75.8352695,167.925532 L77.1347006,171.108511 L76.9005689,171.21383 Z M114.279701,199.1 C114.086835,198.755514 113.753505,198.512019 113.366587,198.432979 L113.682665,201.019149 C114.198175,200.840288 114.639075,200.494292 114.935269,200.03617 C114.860782,199.647955 114.627344,199.308538 114.291407,199.1 L114.279701,199.1 Z M83.3743114,133.404255 C82.7709437,133.667398 82.474293,134.352502 82.6953293,134.97234 C82.92615,135.562242 83.3353965,136.065424 83.865988,136.411702 C83.8734428,135.505844 83.6647605,134.611259 83.2572455,133.802128 L83.3743114,133.404255 Z M115.134281,180.025532 C115.98473,180.816156 117.078496,181.294754 118.236527,181.382979 C117.495557,180.478157 116.466757,179.854504 115.321587,179.615957 L115.134281,180.025532 Z M163.70491,229.197872 C163.884037,228.940955 163.952676,228.622988 163.895474,228.315094 C163.838271,228.0072 163.660002,227.73507 163.400539,227.559574 C162.875698,227.219357 162.269478,227.025441 161.644551,226.997872 L163.599551,229.174468 L163.70491,229.197872 Z M151.01497,218.104255 C150.611563,218.427422 150.414352,218.943278 150.499341,219.453015 C150.584329,219.962753 150.938248,220.386789 151.424701,220.561702 L151.073503,218.303191 L151.01497,218.104255 Z M95.6662275,179.85 C95.8213863,179.615839 95.8741316,179.328486 95.8122436,179.054515 C95.7503556,178.780544 95.5792049,178.54373 95.3384431,178.398936 C95.0340719,178.937234 94.717994,179.569149 95.0457784,180.142553 C95.3735629,180.715957 96.4856886,180.259574 96.1461976,179.744681 L95.6662275,179.85 Z M88.9700599,178.317021 L90.4333832,179.569149 C90.4942992,178.960781 90.2992014,178.354513 89.8948802,177.895745 C89.4383234,177.509574 88.4900898,177.895745 88.6305689,178.42234 L88.9700599,178.317021 Z M124.920988,178.621277 C124.89688,178.90876 125.045451,179.183206 125.299393,179.320282 C125.553334,179.457358 125.864392,179.431017 126.091647,179.253191 C126.052612,178.862325 125.863842,178.501702 125.56485,178.246809 C125.237066,178.03617 124.663443,178.246809 124.733683,178.644681 L124.920988,178.621277 Z M163.950749,222.118085 C164.171263,222.901879 164.572166,223.62323 165.121407,224.224468 C165.823802,223.569149 164.793623,222.52766 163.950749,222.141489 L163.950749,222.118085 Z M86.1253593,173.811702 C86.087826,173.293958 85.6823061,172.878706 85.1654192,172.828723 C85.0912947,173.635778 85.5058112,174.409247 86.219012,174.794681 C86.3324408,174.658011 86.3831065,174.479939 86.358607,174.304055 C86.3341074,174.128171 86.236704,173.970709 86.0902395,173.870213 L86.1253593,173.811702 Z M51.8484731,154.643617 C51.5206886,154.070213 50.6778144,153.473404 50.3383234,153.964894 C50.3798624,154.322773 50.6117488,154.630222 50.9445132,154.768619 C51.2772777,154.907016 51.6588953,154.854722 51.9421257,154.631915 L51.8484731,154.643617 Z M147.303982,213.481915 C147.947844,213.107447 147.421048,212.007447 146.69524,211.867021 C146.554674,212.477964 146.800399,213.112899 147.315689,213.470213 L147.303982,213.481915 Z M76.6898503,176.292553 C76.6313174,175.730851 75.6128443,176.187234 75.7884431,176.725532 C75.9640419,177.26383 76.6196108,177.42766 77.1815269,177.509574 L76.5376647,176.339362 L76.6898503,176.292553 Z M133.89994,157.030851 C134.239431,157.241489 134.567216,156.609574 134.286257,156.317021 C133.941053,156.078262 133.494386,156.042543 133.115599,156.223404 L133.759461,157.159574 L133.89994,157.030851 Z M133.759461,211.480851 C133.512324,211.369117 133.220625,211.458561 133.078674,211.689604 C132.936724,211.920646 132.988833,212.221163 133.200291,212.390971 C133.411748,212.560779 133.716545,212.546871 133.911647,212.358511 L133.911647,211.504255 L133.759461,211.480851 Z" id="path-1"></path>
        <filter x="-50%" y="-50%" width="200%" height="200%" filterUnits="objectBoundingBox" id="filter-2">
            <feMorphology radius="0.5" operator="dilate" in="SourceAlpha" result="shadowSpreadOuter1"></feMorphology>
            <feOffset dx="5" dy="10" in="shadowSpreadOuter1" result="shadowOffsetOuter1"></feOffset>
            <feGaussianBlur stdDeviation="2.5" in="shadowOffsetOuter1" result="shadowBlurOuter1"></feGaussianBlur>
            <feColorMatrix values="0 0 0 0 1   0 0 0 0 1   0 0 0 0 1  0 0 0 0.504755435 0" type="matrix" in="shadowBlurOuter1"></feColorMatrix>
        </filter>
    </defs>
    <g id="Book-Red-Sleek" stroke="none" stroke-width="1" fill="none" fill-rule="evenodd">
        <g id="Icon-Original">
            <g id="Asset-8" transform="translate(55.000000, 113.000000)">
                <g id="Layer_2">
                    <g>
                        <g id="Layer_1-2">
                            <g id="Book_2">
                                <path d="M154.526946,230.297872 L156.306347,232.064894 C156.192414,232.325806 155.975512,232.527931 155.707158,232.62326 C155.438804,232.718589 155.142945,232.698616 154.88985,232.568085 C154.396676,232.296661 153.99072,231.890859 153.719192,231.397872 L154.445,230.309574 L154.526946,230.297872 Z" id="Shape" fill="#000000"></path>
                                <g id="Shape">
                                    <use fill="black" fill-opacity="1" filter="url(#filter-2)" xlink:href="#path-1"></use>
                                    <use fill="#F42626" fill-rule="evenodd" xlink:href="#path-1"></use>
                                </g>
                            </g>
                            <path d="M374.482006,56.1117021 C374.482006,56.1117021 374.704431,69.943617 373.311347,72.6819149 C371.918263,75.4202128 162.826916,259.295745 162.826916,259.295745 C162.826916,259.295745 160.040749,261.062766 155.709311,258.125532 C151.377874,255.188298 24.4784731,169.505319 24.4784731,169.505319 C24.4784731,169.505319 10.6998204,157.978723 12.1631437,148.804255 L163.892216,243.404255 C163.892216,243.404255 166.491078,243.895745 169.476257,241.192553 L374.482006,56.1117021 Z" id="Shape" fill="#FFFFFF"></path>
                        </g>
                    </g>
                </g>
            </g>
        </g>
    </g>
</svg>